<svg xmlns="http://www.w3.org/2000/svg" xmlns:xlink="http://www.w3.org/1999/xlink" xml:space="preserve" style="shape-rendering:geometricPrecision;text-rendering:geometricPrecision;image-rendering:optimizeQuality;" viewBox="0 0 6.827 8.53375" x="0px" y="0px" fill-rule="evenodd" clip-rule="evenodd"><defs><style type="text/css">
   
    .fil1 {fill:none}
    .fil0 {fill:black;fill-rule:nonzero}
   
  </style></defs><g><g><g><g><path class="fil0" d="M3.45517 3.0109l0 2.12249c0,0.0230118 -0.0186575,0.0416693 -0.0416693,0.0416693 -0.00408268,0 -0.00801969,-0.000590551 -0.011748,-0.00168504l-2.11964 -0.432618 0.00829921 -0.040689 -0.00833071 0.0408268c-0.0199055,-0.00405906 -0.0335709,-0.021689 -0.0333386,-0.0412795l0 -1.16468c0,-0.0230118 0.0186575,-0.0416693 0.0416693,-0.0416693 0.00408268,0 0.00801969,0.000590551 0.011748,0.00168504l1.70952 0.348913 0.363571 -0.849835 0.038248 0.0162756 -0.0383071 -0.0163898c0.00905118,-0.0211535 0.0335433,-0.0309685 0.0546969,-0.0219173 0.0159961,0.00684646 0.0255079,0.0225197 0.0252795,0.0389055zm-0.0833386 2.0716l0 -1.86912 -0.295874 0.691594c-0.00671654,0.0194606 -0.0269803,0.0314016 -0.0477008,0.0271772l2.75591e-005 -0.000137795 -1.6962 -0.346197 0 1.08037 2.03975 0.416315z"/><path class="fil0" d="M1.30206 2.53697l0.776378 0.158461 -0.00829921 0.040689 0.00833071 -0.0408268c0.00980315,0.002 0.0180945,0.00729134 0.0239567,0.0144882 0.0546299,0.0617717 0.121992,0.111937 0.197913,0.146291 0.0735236,0.0332638 0.15526,0.0517913 0.241445,0.0517913 0.0452126,0 0.0888701,-0.00498819 0.130465,-0.0144291 0.0431496,-0.00979528 0.0844488,-0.0243228 0.123295,-0.0429921l-7.08661e-005 -0.000149606c0.00961811,-0.00462598 0.0201299,-0.00522441 0.0296378,-0.0024685l0.596685 0.121783 -0.00829921 0.040689 0.00833071 -0.0408268c0.0225472,0.00459843 0.0370945,0.0266102 0.0324961,0.0491575 -0.000791339,0.00387402 -0.00209055,0.00751575 -0.00382677,0.0108622l-0.375665 0.878106 -0.038248 -0.0162756 0.0383071 0.0163898c-0.00838189,0.0195906 -0.0300079,0.0294528 -0.0499567,0.0236142l-2.11974 -0.432634 0.00829921 -0.040689 -0.00833071 0.0408268c-0.0225472,-0.00459843 -0.0370945,-0.0266102 -0.0324961,-0.0491575 0.000791339,-0.00387402 0.00209055,-0.00751575 0.00382677,-0.0108622l0.375665 -0.87811 0.038248 0.0162756 -0.0383071 -0.0163898c0.00838189,-0.0195906 0.0300039,-0.0294528 0.0499567,-0.0236142zm0.746177 0.237063l-0.732921 -0.149594 -0.343563 0.803071 2.03993 0.416346 0.343563 -0.803067 -0.536606 -0.10952c-0.040748,0.0185394 -0.0836417,0.0331142 -0.128157,0.0432205 -0.0481772,0.0109331 -0.0979646,0.0167126 -0.148693,0.0167126 -0.0981496,0 -0.191476,-0.0212047 -0.275626,-0.0592795 -0.083122,-0.0376142 -0.157154,-0.0916378 -0.217921,-0.15789z"/><path class="fil0" d="M3.45517 3.21338l0 1.86912 2.03975 -0.416315 0 -1.08037 -1.6962 0.346197 2.75591e-005 0.000137795c-0.0207205,0.00422441 -0.0409843,-0.00771654 -0.0477008,-0.0271772l-0.295874 -0.691594zm-0.0833386 1.92001l0 -2.12249c-0.000228346,-0.0163858 0.00928346,-0.0320591 0.0252795,-0.0389055 0.0211535,-0.00905118 0.0456457,0.00076378 0.0546969,0.0219173l-0.0383071 0.0163898 0.038248 -0.0162756 0.363571 0.849835 1.70952 -0.348913c0.00372835,-0.00109449 0.00766535,-0.00168504 0.011748,-0.00168504 0.0230118,0 0.0416693,0.0186575 0.0416693,0.0416693l0 1.16468c0.000232283,0.0195906 -0.0134331,0.0372205 -0.0333386,0.0412795l-0.00833071 -0.0408268 0.00829921 0.040689 -2.11964 0.432618c-0.00372835,0.00109449 -0.00766535,0.00168504 -0.011748,0.00168504 -0.0230118,0 -0.0416693,-0.0186575 -0.0416693,-0.0416693z"/><path class="fil0" d="M5.51168 2.62444l-2.03993 0.41635 0.343567 0.803067 2.03993 -0.416346 -0.343563 -0.803071zm-2.09819 0.385858l-0.00829921 -0.040689 2.11974 -0.432638c0.0199528,-0.00583858 0.0415748,0.00402362 0.0499567,0.0236142l-0.0383071 0.0163898 0.038248 -0.0162756 0.375665 0.87811c0.00173622,0.00334646 0.00303543,0.00698819 0.00382677,0.0108622 0.00459843,0.0225472 -0.00994882,0.0445591 -0.0324961,0.0491575l-0.00833071 -0.0408268 0.00829921 0.040689 -2.11974 0.432634c-0.0199488,0.00583858 -0.0415748,-0.00402362 -0.0499567,-0.0236142l0.0383071 -0.0163898 -0.038248 0.0162756 -0.375669 -0.878106c-0.00173622,-0.00334646 -0.00303543,-0.00698819 -0.00382677,-0.0108622 -0.00459843,-0.0225472 0.00994882,-0.0445591 0.0324961,-0.0491575l0.00833071 0.0408268z"/><path class="fil0" d="M1.28211 2.53629c-0.0224685,0.00458268 -0.0369724,0.0265197 -0.0323898,0.0489882 0.00458268,0.0224685 0.0265197,0.0369724 0.0489882,0.0323898l0.635988 -0.129803c0.0224685,-0.00458268 0.0369724,-0.0265197 0.0323898,-0.0489882 -0.00458268,-0.0224685 -0.0265197,-0.0369724 -0.0489882,-0.0323898l-0.635988 0.129803zm1.86676 -0.381004c-0.0224685,0.00458268 -0.0369724,0.0265197 -0.0323898,0.0489882 0.00458268,0.0224685 0.0265197,0.0369724 0.0489882,0.0323898l0.256331 -0.052315c0.0224685,-0.00458268 0.0369724,-0.0265197 0.0323898,-0.0489882 -0.00458268,-0.0224685 -0.0265197,-0.0369724 -0.0489882,-0.0323898l-0.256331 0.052315z"/><path class="fil0" d="M5.52829 2.61767c0.0224685,0.00458268 0.0444055,-0.00992126 0.0489882,-0.0323898 0.00458268,-0.0224685 -0.00992126,-0.0444055 -0.0323898,-0.0489882l-2.12309 -0.433319c-0.0224685,-0.00458268 -0.0444055,0.00992126 -0.0489882,0.0323898 -0.00458268,0.0224685 0.00992126,0.0444055 0.0323898,0.0489882l2.12309 0.433319z"/><path class="fil0" d="M3.37183 3.0103c0,0.0230118 0.0186575,0.0416693 0.0416693,0.0416693 0.0230118,0 0.0416693,-0.0186575 0.0416693,-0.0416693l0 -0.866642c0,-0.0230118 -0.0186575,-0.0416693 -0.0416693,-0.0416693 -0.0230118,0 -0.0416693,0.0186575 -0.0416693,0.0416693l0 0.866642z"/></g><path class="fil0" d="M2.54179 1.65195c0.184906,0 0.352319,0.0749528 0.473496,0.19613 0.121173,0.121177 0.19613,0.288587 0.19613,0.473496 0,0.184909 -0.0749567,0.352319 -0.196134,0.473496 -0.121173,0.121177 -0.288587,0.196134 -0.473492,0.196134 -0.184909,0 -0.352319,-0.0749567 -0.473496,-0.196134 -0.121177,-0.121177 -0.196134,-0.288591 -0.196134,-0.473496 0,-0.184906 0.0749567,-0.352319 0.196134,-0.473492 0.121177,-0.121177 0.288587,-0.196134 0.473496,-0.196134zm0.414575 0.255051c-0.106091,-0.106091 -0.252673,-0.171713 -0.414575,-0.171713 -0.161906,0 -0.308484,0.065626 -0.414575,0.171717 -0.106091,0.106087 -0.171717,0.252669 -0.171717,0.414571 0,0.161902 0.065626,0.308484 0.171717,0.414575 0.106091,0.106091 0.252669,0.171717 0.414575,0.171717 0.161902,0 0.308484,-0.065626 0.414571,-0.171717 0.106091,-0.106091 0.171717,-0.252669 0.171717,-0.414575 0,-0.161906 -0.065626,-0.308484 -0.171713,-0.414575z"/><path class="fil0" d="M2.47527 2.36351l0.133024 0 0 -0.496358 -0.133024 0 0 0.496358zm0.174693 0.0833386l-0.216362 0c-0.0230118,0 -0.0416693,-0.0186575 -0.0416693,-0.0416693l0 -0.579697c0,-0.0230118 0.0186575,-0.0416693 0.0416693,-0.0416693l0.216362 0c0.0230118,0 0.0416693,0.0186575 0.0416693,0.0416693l0 0.579697c0,0.0230118 -0.0186575,0.0416693 -0.0416693,0.0416693z"/><path class="fil0" d="M2.54179 2.52132c0.0401811,0 0.0765748,0.0162992 0.102921,0.0426378 0.0263386,0.0263386 0.0426378,0.0627323 0.0426378,0.102921 0,0.040185 -0.0162992,0.0765787 -0.0426378,0.102925 -0.0263386,0.0263386 -0.0627323,0.0426378 -0.102921,0.0426378 -0.040189,0 -0.0765787,-0.0162992 -0.102925,-0.0426378 -0.0263386,-0.0263465 -0.0426378,-0.0627402 -0.0426378,-0.102925 0,-0.040189 0.0162992,-0.0765827 0.0426378,-0.102921 0.0263465,-0.0263386 0.0627362,-0.0426378 0.102925,-0.0426378zm0.044 0.101559c-0.0112559,-0.011252 -0.026815,-0.0182205 -0.044,-0.0182205 -0.017185,0 -0.032748,0.0069685 -0.0440039,0.0182205 -0.011252,0.011252 -0.0182205,0.026815 -0.0182205,0.044 0,0.017189 0.0069685,0.032748 0.0182205,0.0440039 0.0112559,0.011252 0.0268189,0.0182205 0.0440039,0.0182205 0.017185,0 0.032748,-0.0069685 0.044,-0.0182205 0.011252,-0.0112559 0.0182205,-0.026815 0.0182205,-0.0440039 0,-0.017185 -0.0069685,-0.032748 -0.0182205,-0.044z"/></g></g></g><rect class="fil1" width="6.827" height="6.827"/><text x="0" y="21.826999999999998" fill="#000000" font-size="5px" font-weight="bold" font-family="'Helvetica Neue', Helvetica, Arial-Unicode, Arial, Sans-serif">Created by Grafix Point</text><text x="0" y="26.826999999999998" fill="#000000" font-size="5px" font-weight="bold" font-family="'Helvetica Neue', Helvetica, Arial-Unicode, Arial, Sans-serif">from the Noun Project</text></svg>